# xmcd CD database file
#
# Track frame offsets:
#	150
#	25725
#	54253
#	96207
#	116927
#	144476
#	176676
#	178352
#	203719
#	233204
#	247596
#	288232
#	319439
#
# Disc length: 4580 seconds
#
# Revision: 0
# Processed by: cddbd v1.5PL3 Copyright (c) Steve Scherf et al.
# Submitted via: CDex 1.50
#
DISCID=b811e20d
DTITLE=Rory Gallagher - Two BBC In Concerts
DYEAR=2004
DGENRE=Blues
TTITLE0=Hands Up
TTITLE1=For the Last Time
TTITLE2=In Your Town
TTITLE3=Just the Smile
TTITLE4=Laundromat
TTITLE5=It Takes Time
TTITLE6=John Peel Introducing Rory
TTITLE7=Used To Be
TTITLE8=I Should've Learned My Lesson
TTITLE9=Out Of Mind
TTITLE10=Could've Had Religion
TTITLE11=Crest Of A Wave
TTITLE12=Messin' With The Kid
EXTD=YEAR: 2004
EXTT0=
EXTT1=
EXTT2=
EXTT3=
EXTT4=
EXTT5=
EXTT6=
EXTT7=
EXTT8=
EXTT9=
EXTT10=
EXTT11=
EXTT12=
PLAYORDER=
